<svg xmlns="http://www.w3.org/2000/svg" width="2730.667" height="2730.667" viewBox="0 0 2048 2048"><path d="M992 658.5c-1.6 1.9-.4 3.5 2.5 3.5 3.2 0 5.1 3.3 2.9 5-1.2 1.1-2.2 1-5.4 0-2.2-.7-3.7-1.7-3.4-2.2 2-3.1-15.2-2.7-50.1 1.3-78.1 8.9-134.3 32.7-190 80.4-45.7 39.2-74.9 78.4-96.8 130-19.4 45.7-25.4 72.5-26.4 118.6-1 46.7 3 71.2 18.8 115.1 9.8 27.2 13.5 39.7 20 68.3 11.3 49.4 19.7 72.1 36.4 98.1 18 27.8 60.1 63.4 96 81 34.4 16.8 57.4 21.4 140.5 28 27.5 2.1 84 3 103.7 1.5 36.9-2.8 83.6-11.9 115.7-22.6 39.7-13.2 83.9-38.8 119.6-69.1 9.7-8.3 34.9-33.6 46.6-46.9 20.5-23.2 51.1-63.2 64.3-83.8 22.1-34.5 38.1-77.7 33.2-89.6-2.5-5.9-10.5-6.5-17.8-1.2-5.5 4-9.2 10.4-15.7 26.9-6.9 17.5-11.6 27-15.7 31.7-3.3 3.7-3.3 6.5-.1 6.5 3.8 0 9.3-9.6 19.6-34.7 3.9-9.4 8.5-19.1 10.2-21.5 3.8-5.3 9-8.4 12.9-7.4l2.8.7-.5 7.7c-.9 13.2-10.9 40-22.9 61.6-26.6 47.6-88 121.2-127.3 152.4-24.2 19.3-56.6 39.5-81.1 50.6-41.5 18.7-101.4 31.8-158.3 34.7-34 1.6-110.5-2.6-155.2-8.7-45.8-6.2-76.5-19.3-116-49.5-37.1-28.3-55.1-51.5-70.2-90.4-4.9-12.5-7.6-22.2-16.8-60-8.4-35.2-10.1-40.7-20.4-69.3-11.5-31.7-16-53.1-17.6-84.3-1.7-32.9 1.5-67.8 8.4-93 8.2-29.8 23.7-66.4 39.1-92.4 23.6-40 66.1-83.3 111-113.1 49.9-33.2 107.8-50.2 187-55.1 9-.5 10.3-.4 10.8 1.1.4.9 2.2 2.3 4.1 3.1 6.7 2.8 14.5-1.9 13-7.9-1.3-5.2-8.6-8.5-11.4-5.1"/><path d="M968 684.7c-35.7 3.8-86.8 20.4-127.5 41.2-61.9 31.8-102.7 65-129.6 105.6-23.2 35-44.5 89.1-53.8 136.9-4.5 22.9-5.4 33.6-4.8 54.5.6 22.6 2.3 30.3 13.1 63.1 9.3 28 13.5 44 18.1 69 6.5 35.5 11.5 52 22.2 73.5 12.2 24.4 26.3 42.3 49.3 62.9 28.6 25.6 42.2 34.6 62.8 41.8 8.7 3 10.2 2.9 10.2-.2 0-1.4-1.6-2.4-6.7-4-17.8-5.8-33.6-15.7-55.8-35-30.4-26.5-47.8-48.8-60-77-8.1-18.5-11.1-29.3-17-61-4.8-26-10.4-47.6-18.1-70-12.4-36.2-15.7-56.4-13.5-82.5 5.3-61.3 32.6-135.9 66.5-181.3 25.9-34.6 73.1-70 129.6-97 30.6-14.7 72.4-28.5 101.4-33.6 48-8.4 96.7-.7 131.6 20.7 5.4 3.3 7.8 4.3 8.7 3.5 2.3-1.9-.5-4.6-10.5-10.1q-27.3-15.3-62.1-20.1c-10.3-1.5-43.8-2-54.1-.9"/><path d="M970 709.1c-33.6 2.9-73.7 15.8-122.5 39.3-41.2 19.9-64.5 35.7-87.1 58.8-29.1 29.7-53.5 75.5-68.8 128.9-8.6 30.1-16.3 76.8-17.3 104.9-1 28.5 1.5 42.9 10.9 63.4 2.7 6.1 6.5 14.5 8.4 18.7s5.9 17.1 8.9 28.7c11.4 44 22.1 64.8 45.5 88.3 20.2 20.2 47 37.5 96.8 62.3 30.9 15.4 46.9 21.1 73.9 26.1 31.1 5.8 71.6 7.5 97.3 4.1 35.9-4.7 91.8-18.2 131-31.4 69.4-23.6 102.9-39.5 126.8-60.2 26.5-22.9 40.8-49.6 50.6-94 7.7-34.7 11.7-46.7 19.7-60.3 7.9-13.4 20.4-24 24.4-20.7 3.4 2.8 1.1 11.8-9.3 35-6.9 15.5-11.5 29.1-17.2 51-12 45.5-24.1 70.1-46.7 95.2-29.1 32.3-74 61-124.4 79.4-29 10.6-54.4 15.9-95.4 19.9-34.6 3.4-33.5 3.2-33.5 5.4 0 1.1.6 2.1 1.3 2.4 1.7.6 61.4-5.8 72.3-7.8 48.2-8.9 93.8-27.4 135.6-55.2 20.2-13.4 44-35.3 57.9-53.3 17.3-22.4 25.6-41 36.9-82.5 6.8-25.4 10.2-35.6 16.8-50.5 12.8-29.4 14.4-35.9 10.1-41.4s-13.6-2.8-22.5 6.6c-13.7 14.3-20.2 29.7-28.9 68.3-8 35.4-15.2 54.5-27.6 72.6-10.9 15.9-27.3 31.4-44.6 42.2-17.2 10.8-56.1 27.1-102.3 42.8-46.5 15.9-108.1 29.9-145.1 33-32.6 2.7-80.7-2.7-110.9-12.3-13.4-4.3-27.3-10.4-51-22.4-57-28.8-86.5-50.3-105.3-77.1-11.6-16.5-19.3-35.1-27.1-65-5.9-22.7-7.9-28.4-16.3-46.2-10.7-22.9-12.9-34.2-12-64.1 1.3-44.9 13.5-102 30.7-143 30.7-73.4 61.1-106.5 129.5-141 44.1-22.3 90.7-39 120.5-43.1 12-1.7 39.8-1.7 51-.1 21.7 3.1 44.4 10.6 59.7 19.7 5.9 3.6 13 9.1 20.2 15.9 11.4 10.8 16.2 13.8 34.1 21 16.3 6.6 28.7 20.3 47.3 52.6 9.2 16 11.8 24.2 8.2 25.6-2.7 1.1-12-4.4-17.4-10.1-3.7-3.9-6.8-8.8-10.3-16.3-12.1-25.4-18.8-31.8-44-42.6-13.6-5.8-20.5-10.1-31.3-19.6-12.8-11.3-24.4-18.1-40.5-23.8-29.1-10.2-67.3-10.3-103.4-.1-43.1 12.2-91.7 39.6-127.6 72.1-28.8 26-52.8 56.5-67 84.9-13.5 26.8-38.3 112.7-40.6 140.4-1 13.1 2.3 34.7 5.8 36.9 2.9 1.8 3.2-.1 1.2-8.6-2.4-10.8-2.4-30.7 0-43.3 4.3-22.5 21.7-82.8 30.2-104.5 12.7-32.3 31.7-60.2 61.9-90.5 45.6-45.9 107.4-79.2 163.6-88.2 14.1-2.2 41.2-2.2 53.7.1 16.6 3 33.2 9.4 46.7 18.1 2.8 1.8 9.2 6.8 14.3 11.3 10.7 9.5 16.9 13.3 32.7 20.1 22.2 9.5 27.7 14.8 38.6 37 6.2 12.5 8.2 15.6 13.8 21.2 9.9 9.9 19.9 13.1 24.7 7.8 4-4.4.2-14.7-14.4-38.9-18.4-30.6-29.7-41.4-51.3-49.3-9.8-3.5-14.7-6.7-25.5-16.7-18.1-16.8-33.2-24.9-59.9-32-20.5-5.5-44.2-7.7-64.5-5.9"/><path d="M954 765.5c-4.7.7-17.9 3.5-29.5 6-16.6 3.7-23.8 4.8-34.5 5.4l-13.5.7-15 14.9c-8.2 8.3-25.9 25.5-39.3 38.4-33.3 32.1-48.9 51.7-65.5 82.6-19.2 35.8-34.9 80.6-41.9 119.5-2 10.9-2.3 15.9-2.3 38.5 0 27.7 1 35.2 6.5 52.5 5 15.5 21.7 45.7 39.8 72 35.1 51.1 82.2 79.4 161.2 96.9 38.4 8.5 82.9 11.5 136 9.2 62-2.8 92.5-9.4 134.5-29.5 45-21.5 80.7-48.7 97.9-74.6 10.6-15.8 16.8-32 25.1-65.2 7.2-28.4 11.2-39.3 23.2-62.8 18.6-36.4 25.2-56.9 26-80.5.4-11.7.1-15.7-1.7-24.4-4.7-23.3-15.7-44.7-37.5-74-10.7-14.3-13.7-17.3-16.1-16.4-2.1.8-1.7 2.9 2.1 12.9 7.7 20.6 14.7 51.4 18.1 80.4 2 17.2 2.2 46 .5 58-1.8 12.3-7.3 33-11.9 45-2.2 5.8-8.6 22.4-14.2 37-12.3 32.1-16 40.2-24.3 52.8-7 10.8-21.8 28.2-32.3 38.3-8.5 8.1-28.8 24.3-41.8 33.3-25.9 18.1-43.9 26.9-75.1 36.6-27.5 8.6-27.5 8.6-27.5 10.5 0 2.1 3.2 1.9 13.5-1 46-13.1 69.4-24.9 109.5-55 21.9-16.5 46.4-42 59-61.5 6.6-10.2 12.2-22.6 21.9-48 4.9-12.9 11.2-29.5 14.1-36.8 6.4-16.8 11.3-34.5 13.4-48.9 3.3-22.6 1.4-57.9-4.8-91.3-2.3-12.1-9.1-38.9-11.6-45.5-.5-1.4-.7-2.5-.5-2.5.9 0 14 18.2 19.5 27 7.6 12 16.5 31 19.4 41.2 3.5 12.1 4.9 27.3 3.6 38.6-2.2 20-8.6 37.9-25.2 71.4-14.2 28.6-16.4 34.5-23.7 63.5-7.1 28.2-10.5 38.3-17.4 51.7-15.9 31.1-46.8 57.5-96.3 82.4-42 21.2-77.1 29.7-132.7 32.2-68.5 3-112.8-.7-161.5-13.6-48.9-13-82.4-30.6-111.9-58.8-11.5-10.9-19.7-21-30.7-37.6-29.4-44.3-38.6-66.2-41.8-99.4-4.1-43 11.5-106.3 40.2-163.5 20.7-41.3 34.2-57.6 99.3-119.4 9.7-9.2 18.4-18.1 19.3-19.6l1.7-2.8 13.6-.6c10.5-.5 17.2-1.4 29.6-4.2 51.4-11.7 70.8-11.7 115.1-.5 27.2 6.9 59.7 20.3 74 30.5 7 5 17.8 18.5 16.1 20.1-.2.2-4.6-1.8-9.8-4.6-38.7-20.8-57.7-28.6-84.4-35-16.7-4-32.1-5.9-55.2-6.6-58.9-1.9-92.8 9.3-136.6 45.4-64.8 53.3-94 111.1-100.8 199.2-5.4 70.9 19.5 138.5 66.2 179.8 17.3 15.4 43.9 31.6 67.9 41.5 24.6 10.1 69.4 21.2 110 27.4 47 7.1 114.3 2.1 149.5-11.2 10.9-4.1 13.9-6.5 20.9-17.3 7.6-11.7 13.8-17.6 29.1-27.3 46.9-29.9 65.2-43.6 83.6-62.5 13.1-13.5 21.1-24.2 27.6-37 11.2-21.9 14.9-41.6 16.8-91.4 1.7-42.8-6.4-80.1-20.7-95.6-3.8-4.1-4.5-4.5-8.2-4.2-3.5.3-4.3.8-5.9 3.8-3.1 6-1.8 22.7 4.2 52.8 2.8 13.8 5.6 30.7 6.2 37.5 1.9 20.2-.3 41-6.3 59.6-8.7 27.1-21.7 46-40.8 59-6.2 4.3-8.7 6.6-8.4 7.6 1 2.6 4 1.7 11.7-3.5 29.7-19.9 48.8-61.8 49-107.5 0-17.7-.8-23.7-7.5-57.5-6-30.2-6.9-42.4-3.1-46.1l2.2-2.2 3.1 3.3c4 4.3 10.1 16.3 12.9 25.5 6.1 19.6 8.4 50.7 6.2 84.5-2.2 34.2-4.8 47.9-12.6 66-6.9 16-16.6 29-35.2 47-18.1 17.5-37.7 32.1-70.8 52.5-21.7 13.4-30.2 21-37.7 33.8-4.8 8.2-9.1 11.5-20.1 15.5-22.5 8.2-59.8 13.3-97.2 13.3-20.9.1-33-.9-53-4.2-48.6-8-90-19.4-116.2-31.9-64.8-31-101.5-78-115.2-147.8-3.3-16.7-4.4-32-3.8-53.2.8-28.7 5.6-56.6 14.8-86.5 13.2-42.6 40-81.4 78.9-114.1 36.3-30.6 60.7-42.4 98-47.6 14.2-2 57.3-1.6 72.5.6 16 2.3 31.3 5.9 46.6 11.2 15.9 5.4 24.7 9.5 53.1 24.5 22.4 11.9 22.7 12.1 31.7 21.4 9.9 10.2 14.3 17.4 12.4 20.3-2.5 3.9-10-.1-27.8-15-35.3-29.4-61.7-43.1-97-50.3-42.2-8.7-76.7-4.5-124.5 15.1-16.2 6.7-16.7 6.8-26.5 7-11.2.2-10-.5-20.7 12.9-2.7 3.3-8 9.6-11.9 14-8.8 9.8-23.9 29.1-34.9 44.5-33.4 46.8-47.9 89-49.7 144.1-.9 28.4 2.1 43 13.8 66.6 7.2 14.6 15.8 27.8 28.7 43.8 42.9 53 89.2 82.2 153.7 96.9 15.3 3.5 25.7 5.1 50 8 13.5 1.6 26.2 3.8 35.5 6.2 30.5 7.7 50.5 5.2 82.1-10.2 22.9-11.2 41.1-24.6 60.4-44.5 19.7-20.3 29.9-35.4 51-75.4 27-51.2 30.2-59.6 29.2-75-.6-9.4-3.8-18.6-7.4-21.5-5.3-4.2-13.9-1.7-17.3 5-1.1 2.1-3.6 11.7-5.6 21.2-7.9 38-18.2 64.1-35.8 90.6-9.8 14.7-17.6 24-32.7 38.7-29 28.3-47 40.5-69.3 47-37.6 10.8-81.7 2.4-163.1-31-42.1-17.3-66.2-31.1-82.1-46.9-12-12-19-22.9-33.7-52.6-13.5-27.2-21.2-45.5-25.4-60.5-2.5-9.1-2.8-11.5-2.7-26.5 0-15.1.2-17.3 2.7-25.4 2.4-7.8 2.6-9.1 1.3-10.4-1.9-1.9-2.7-.3-6.1 11.4-8.5 29.1-1.1 60.5 27.9 118.2 21.2 42.1 35.2 57.3 69.9 76.1 31.5 17 104.1 44.7 135.2 51.6 33.3 7.4 59.9 6.9 84.1-1.6 21.1-7.4 43.6-23.8 70.1-51.3 35.2-36.3 53.6-72.9 64.8-128.1 3.8-18.9 6.6-23.6 13.1-22.3 3.2.6 6.5 8.8 7.1 17.6.9 12.9-1.3 20.5-12.7 42.6-33.6 65.9-42.3 79.9-62.4 101.4-21.4 23-41.4 37.6-68.3 50-25.7 11.8-44.1 14-67.1 8.3-15.8-4-25-5.6-49.7-8.6-35-4.4-62.6-11-87.5-21-31.5-12.7-55.6-29-82-55.4-35.4-35.5-57.5-71.3-63.6-102.9-1.7-9.2-1.9-35.3-.4-49.7 1.6-14.9 6.6-38.5 10.7-51 4.6-13.8 20-44.8 28.9-58 14.4-21.6 32.6-45 49.8-64.2 5-5.6 10.4-12 11.9-14.3l2.9-4.2 5.8.6c8 .9 15.2-.9 34.8-8.9 17.5-7.1 34.7-12.2 50.7-15.1 13.5-2.4 40.8-2.5 56-.1 39.9 6.3 65.9 18.9 103.5 50 9.1 7.6 18.7 14.8 21.4 16.2 5.9 2.9 11.6 3.3 13.9.7 5.4-6 1.9-14.1-13.2-29.4-6-6.1-10.9-11.4-10.9-11.7.1-.8-.9-3.4-4.4-10.9-4.6-9.9-16.9-19.2-36.8-27.7-23.2-10-47.2-17.6-71-22.6-12.8-2.7-16.9-3.1-35-3.5-14.4-.2-23 .1-29 1.1M834.7 797.7c-.4.3-.7 1.5-.7 2.5 0 2 4.4 2.6 5.5.8 1.4-2.2-3-5.2-4.8-3.3"/><path d="M858.9 852.2c0 .2-.2 1.8-.5 3.7-.6 4.9-8.5 19.2-18.5 33.9-29.9 43.3-37.2 55.7-45.3 77.4-4.1 11.1-4.3 12.8-1.7 12.8 1.5 0 3-2.8 7.1-12.8 9.5-23.1 16.7-35.7 36.2-63.2 19.4-27.4 29.8-46.9 26.8-50.5-1-1.3-3.8-2.1-4.1-1.3M733.2 883.1c.2.6.8 1 1.3 1s1.1-.4 1.3-1-.4-1.1-1.3-1.1-1.5.5-1.3 1.1M725 902c0 .5.5 1 1 1 .6 0 1-.5 1-1 0-.6-.4-1-1-1-.5 0-1 .4-1 1M635.7 1112.6c-.4.4-.7 1.6-.7 2.6 0 1.4.6 1.9 2.3 1.6 1.4-.2 2.2-1 2.2-2.3 0-2-2.5-3.2-3.8-1.9M639.3 1126.1c-1.5 1.5-.5 3.9 1.7 3.9 2.1 0 4.4-2.5 3.5-4-.8-1.3-3.8-1.3-5.2.1M1252 1219.3c0 1.9 1 2.7 2.6 2 2.1-.8 1.7-3.3-.6-3.3-1.1 0-2 .6-2 1.3M1247 1221.4c0 1 .9 1.6 2.1 1.6 2.4 0 2.1-2.3-.4-2.8-1-.2-1.7.3-1.7 1.2M920.7 1250.6c-.8.8.1 2.4 1.4 2.4.5 0 .9-.7.9-1.5 0-1.5-1.2-2-2.3-.9M934 1253.9c0 2 2.5 3.5 4.1 2.5.5-.3.9-1.4.9-2.5 0-1.4-.7-1.9-2.5-1.9s-2.5.5-2.5 1.9M1015.1 1317.3c-1.5 1.9-.3 4.9 1.8 4.5.9-.2 1.6-1.3 1.6-2.7 0-2.9-1.7-3.7-3.4-1.8M1210.4 1325.1c-.7 1.2 1.5 3.1 2.8 2.3.4-.3.8-1.2.8-2 0-1.7-2.6-1.9-3.6-.3M1195.3 1331.7c-1.8.7-1.6 4.2.3 5 .8.3 2.3-.1 3.1-1 1.3-1.3 1.4-1.9.3-3.1-1.3-1.7-1.7-1.8-3.7-.9M839 1336c-.7.4-1 1.5-.8 2.5.6 3.4 42.7 14.3 68.3 17.7 7.6 1 24 1.2 69 1 32.4-.2 59.2-.6 59.4-.8 1.1-1.1-2.1-2.5-8-3.5-4.3-.7-21.7-.9-52.9-.4-48.6.7-57.2.3-80-3.5-13.5-2.3-31.8-6.7-44.7-10.8-5-1.6-9.7-2.6-10.3-2.2"/></svg>